<svg width="14" height="15" viewBox="0 0 14 15" fill="none" xmlns="http://www.w3.org/2000/svg">
<path d="M7.08752 10.125V11.35" stroke="#FF9900" stroke-width="0.875" stroke-linecap="round" stroke-linejoin="round"/>
<path d="M4.17084 13.3333H10.0042V12.75C10.0042 12.1083 9.47917 11.5833 8.8375 11.5833H5.3375C4.69584 11.5833 4.17084 12.1083 4.17084 12.75V13.3333V13.3333Z" stroke="#FF9900" stroke-width="0.875" stroke-miterlimit="10"/>
<path d="M3.58752 13.3333H10.5875" stroke="#FF9900" stroke-width="0.875" stroke-linecap="round" stroke-linejoin="round"/>
<path d="M7.00002 9.83335C4.74252 9.83335 2.91669 8.00752 2.91669 5.75002V4.00002C2.91669 2.71085 3.96085 1.66669 5.25002 1.66669H8.75002C10.0392 1.66669 11.0834 2.71085 11.0834 4.00002V5.75002C11.0834 8.00752 9.25752 9.83335 7.00002 9.83335Z" fill="#FF9900" fill-opacity="0.2" stroke="#FF9900" stroke-width="0.875" stroke-linecap="round" stroke-linejoin="round"/>
<path d="M3.19084 7.29581C2.75334 7.15581 2.36834 6.89914 2.065 6.59581C1.54 6.01248 1.19 5.31248 1.19 4.49581C1.19 3.67914 1.83167 3.03748 2.64834 3.03748H3.0275C2.91084 3.30581 2.8525 3.60331 2.8525 3.91248V5.66248C2.8525 6.24581 2.975 6.79414 3.19084 7.29581Z" stroke="#FF9900" stroke-width="0.875" stroke-linecap="round" stroke-linejoin="round"/>
<path d="M10.8091 7.29581C11.2466 7.15581 11.6316 6.89914 11.935 6.59581C12.46 6.01248 12.81 5.31248 12.81 4.49581C12.81 3.67914 12.1683 3.03748 11.3516 3.03748H10.9725C11.0891 3.30581 11.1475 3.60331 11.1475 3.91248V5.66248C11.1475 6.24581 11.025 6.79414 10.8091 7.29581Z" stroke="#FF9900" stroke-width="0.875" stroke-linecap="round" stroke-linejoin="round"/>
</svg>
