<svg width="16" height="17" viewBox="0 0 16 17" fill="none" xmlns="http://www.w3.org/2000/svg">
<path d="M2.31452 9.53629L2.79481 9.39731L2.79481 9.39731L2.31452 9.53629ZM2.31452 5.10436L1.83423 4.96537H1.83423L2.31452 5.10436ZM13.6855 5.10436L14.1658 4.96537V4.96537L13.6855 5.10436ZM13.6855 9.53629L13.2052 9.3973L13.2052 9.3973L13.6855 9.53629ZM11.2099 11.8384L11.1165 11.3472L11.2099 11.8384ZM4.79015 11.8384L4.88354 11.3472L4.79015 11.8384ZM4.79015 2.80229L4.69675 2.31109L4.79015 2.80229ZM11.2099 2.80229L11.3033 2.31109L11.2099 2.80229ZM2.3467 9.64749L1.86641 9.78648H1.86641L2.3467 9.64749ZM13.6533 9.64749L14.1336 9.78648L14.1336 9.78648L13.6533 9.64749ZM13.6533 4.99316L13.173 5.13214V5.13215L13.6533 4.99316ZM2.3467 4.99316L2.82699 5.13214V5.13214L2.3467 4.99316ZM8.5 12.4487C8.5 12.1725 8.27614 11.9487 8 11.9487C7.72386 11.9487 7.5 12.1725 7.5 12.4487H8.5ZM7.5 14.5C7.5 14.7761 7.72386 15 8 15C8.27614 15 8.5 14.7761 8.5 14.5H7.5ZM6.24257 14C5.96643 14 5.74257 14.2239 5.74257 14.5C5.74257 14.7761 5.96643 15 6.24257 15V14ZM9.75743 15C10.0336 15 10.2574 14.7761 10.2574 14.5C10.2574 14.2239 10.0336 14 9.75743 14V15ZM13.173 5.13215L13.2052 5.24335L14.1658 4.96537L14.1336 4.85417L13.173 5.13215ZM13.2052 9.3973L13.173 9.50851L14.1336 9.78648L14.1658 9.67528L13.2052 9.3973ZM2.82699 9.50851L2.79481 9.39731L1.83423 9.67528L1.86641 9.78648L2.82699 9.50851ZM2.79481 5.24335L2.82699 5.13214L1.86641 4.85417L1.83423 4.96537L2.79481 5.24335ZM2.79481 9.39731C2.40173 8.03895 2.40173 6.6017 2.79481 5.24335L1.83423 4.96537C1.38859 6.50532 1.38859 8.13533 1.83423 9.67528L2.79481 9.39731ZM13.2052 5.24335C13.5983 6.60171 13.5983 8.03895 13.2052 9.3973L14.1658 9.67528C14.6114 8.13533 14.6114 6.50532 14.1658 4.96537L13.2052 5.24335ZM11.1165 11.3472C9.05833 11.7385 6.94167 11.7385 4.88354 11.3472L4.69675 12.3296C6.87831 12.7443 9.1217 12.7443 11.3032 12.3296L11.1165 11.3472ZM4.88354 3.29349C6.94167 2.90217 9.05833 2.90217 11.1165 3.29349L11.3033 2.31109C9.1217 1.8963 6.87831 1.8963 4.69675 2.31109L4.88354 3.29349ZM4.88354 11.3472C3.88845 11.158 3.0972 10.4422 2.82699 9.50851L1.86641 9.78648C2.24458 11.0933 3.34333 12.0722 4.69675 12.3296L4.88354 11.3472ZM11.3032 12.3296C12.6567 12.0722 13.7554 11.0933 14.1336 9.78648L13.173 9.5085C12.9028 10.4422 12.1116 11.158 11.1165 11.3472L11.3032 12.3296ZM11.1165 3.29349C12.1116 3.4827 12.9028 4.1984 13.173 5.13214L14.1336 4.85417C13.7554 3.54735 12.6567 2.56843 11.3033 2.31109L11.1165 3.29349ZM4.69675 2.31109C3.34333 2.56843 2.24458 3.54735 1.86641 4.85417L2.82699 5.13214C3.0972 4.1984 3.88845 3.4827 4.88354 3.29349L4.69675 2.31109ZM7.5 12.4487V14.5H8.5V12.4487H7.5ZM6.24257 15H9.75743V14H6.24257V15Z" fill="#6A6C87"/>
<path d="M5.33331 8L6.70587 6.91911C6.95641 6.72181 7.08168 6.62316 7.2202 6.64076C7.35872 6.65835 7.45535 6.78518 7.64862 7.03884L8.35134 7.96116C8.54461 8.21482 8.64124 8.34165 8.77976 8.35924C8.91828 8.37684 9.04355 8.27819 9.29409 8.08089L10.6666 7" stroke="#6A6C87" stroke-linecap="round"/>
</svg>
