<svg width="20" height="20" viewBox="0 0 20 20" fill="none" xmlns="http://www.w3.org/2000/svg">
<path d="M18.3334 4.99999V7.01666C18.3334 8.33332 17.5 9.16666 16.1834 9.16666H13.3334V3.34166C13.3334 2.41666 14.0917 1.66666 15.0167 1.66666C15.925 1.67499 16.7584 2.04166 17.3584 2.64166C17.9584 3.24999 18.3334 4.08332 18.3334 4.99999Z" fill="#555775"/>
<path opacity="0.4" d="M1.66663 5.83332V17.5C1.66663 18.1917 2.44996 18.5833 2.99996 18.1667L4.42496 17.1C4.75829 16.85 5.22496 16.8833 5.52496 17.1833L6.90829 18.575C7.23329 18.9 7.76663 18.9 8.09163 18.575L9.49162 17.175C9.78329 16.8833 10.25 16.85 10.575 17.1L12 18.1667C12.55 18.575 13.3333 18.1833 13.3333 17.5V3.33332C13.3333 2.41666 14.0833 1.66666 15 1.66666H5.83329H4.99996C2.49996 1.66666 1.66663 3.15832 1.66663 4.99999V5.83332Z" fill="#555775"/>
<path d="M10 8.125H5C4.65833 8.125 4.375 7.84167 4.375 7.5C4.375 7.15833 4.65833 6.875 5 6.875H10C10.3417 6.875 10.625 7.15833 10.625 7.5C10.625 7.84167 10.3417 8.125 10 8.125Z" fill="#555775"/>
<path d="M9.375 11.4583H5.625C5.28333 11.4583 5 11.175 5 10.8333C5 10.4917 5.28333 10.2083 5.625 10.2083H9.375C9.71667 10.2083 10 10.4917 10 10.8333C10 11.175 9.71667 11.4583 9.375 11.4583Z" fill="#555775"/>
</svg>
