<svg width="16" height="17" viewBox="0 0 16 17" fill="none" xmlns="http://www.w3.org/2000/svg">
<path d="M2 4.6884C1.72386 4.6884 1.5 4.91225 1.5 5.1884C1.5 5.46454 1.72386 5.6884 2 5.6884V4.6884ZM14 5.6884C14.2761 5.6884 14.5 5.46454 14.5 5.1884C14.5 4.91225 14.2761 4.6884 14 4.6884V5.6884ZM3.33333 5.1884V4.6884H2.83333V5.1884H3.33333ZM12.6667 5.1884H13.1667V4.6884H12.6667V5.1884ZM12.2279 11.7202L12.7083 11.8589L12.2279 11.7202ZM9.1493 14.4036L9.23262 14.8966H9.23262L9.1493 14.4036ZM6.85067 14.4036L6.93399 13.9106L6.93398 13.9106L6.85067 14.4036ZM6.74551 14.3858L6.6622 14.8788H6.6622L6.74551 14.3858ZM3.7721 11.7202L3.29171 11.8589L3.7721 11.7202ZM9.25448 14.3858L9.17117 13.8928L9.25448 14.3858ZM5.22836 4.15959L5.68222 4.36938L5.22836 4.15959ZM5.87868 3.28741L5.54499 2.91505L5.54499 2.91505L5.87868 3.28741ZM6.85195 2.70464L7.02595 3.17339V3.17339L6.85195 2.70464ZM9.14805 2.70464L9.32205 2.23589V2.23589L9.14805 2.70464ZM10.7716 4.15959L11.2255 3.94981L10.7716 4.15959ZM2 5.6884H14V4.6884H2V5.6884ZM9.17117 13.8928L9.06599 13.9106L9.23262 14.8966L9.33779 14.8788L9.17117 13.8928ZM6.93398 13.9106L6.82882 13.8928L6.6622 14.8788L6.76736 14.8966L6.93398 13.9106ZM12.1667 5.1884V8.61722H13.1667V5.1884H12.1667ZM3.83333 8.61724V5.1884H2.83333V8.61724H3.83333ZM12.1667 8.61722C12.1667 9.62037 12.0255 10.6184 11.7475 11.5815L12.7083 11.8589C13.0123 10.8056 13.1667 9.71414 13.1667 8.61722H12.1667ZM9.06599 13.9106C8.36024 14.0298 7.63974 14.0298 6.93399 13.9106L6.76736 14.8966C7.58341 15.0345 8.41656 15.0345 9.23262 14.8966L9.06599 13.9106ZM6.82882 13.8928C5.60349 13.6857 4.60105 12.789 4.25248 11.5815L3.29171 11.8589C3.74585 13.432 5.05444 14.6071 6.6622 14.8788L6.82882 13.8928ZM4.25248 11.5815C3.97446 10.6184 3.83333 9.62038 3.83333 8.61724H2.83333C2.83333 9.71415 2.98765 10.8056 3.29171 11.8589L4.25248 11.5815ZM9.33779 14.8788C10.9455 14.6071 12.2541 13.4321 12.7083 11.8589L11.7475 11.5815C11.3989 12.789 10.3965 13.6857 9.17117 13.8928L9.33779 14.8788ZM5.5 5.1884C5.5 4.90911 5.5613 4.63099 5.68222 4.36938L4.7745 3.94981C4.5939 4.34053 4.5 4.76159 4.5 5.1884H5.5ZM5.68222 4.36938C5.80324 4.10755 5.98238 3.86588 6.21237 3.65978L5.54499 2.91505C5.21783 3.20823 4.95501 3.55929 4.7745 3.94981L5.68222 4.36938ZM6.21237 3.65978C6.44246 3.45358 6.71851 3.28751 7.02595 3.17339L6.67796 2.23589C6.25744 2.39198 5.87205 2.62196 5.54499 2.91505L6.21237 3.65978ZM7.02595 3.17339C7.33341 3.05926 7.66454 3 8 3V2C7.54753 2 7.09844 2.07981 6.67796 2.23589L7.02595 3.17339ZM8 3C8.33546 3 8.66659 3.05926 8.97406 3.17339L9.32205 2.23589C8.90156 2.07981 8.45247 2 8 2V3ZM8.97406 3.17339C9.28149 3.28751 9.55754 3.45358 9.78763 3.65978L10.455 2.91505C10.1279 2.62197 9.74256 2.39198 9.32205 2.23589L8.97406 3.17339ZM9.78763 3.65978C10.0176 3.86588 10.1968 4.10755 10.3178 4.36938L11.2255 3.94981C11.045 3.55929 10.7822 3.20823 10.455 2.91505L9.78763 3.65978ZM10.3178 4.36938C10.4387 4.631 10.5 4.90911 10.5 5.1884H11.5C11.5 4.76159 11.4061 4.34053 11.2255 3.94981L10.3178 4.36938ZM3.33333 5.6884H12.6667V4.6884H3.33333V5.6884Z" fill="#FF0000" fill-opacity="0.8"/>
<path d="M6.66663 8.5V11.1667M9.33329 8.5V11.1667" stroke="#FF0000" stroke-opacity="0.8" stroke-linecap="round"/>
</svg>
